<?xml version="1.0" standalone="no"?>
<!DOCTYPE svg PUBLIC "-//W3C//DTD SVG 20010904//EN"
 "http://www.w3.org/TR/2001/REC-SVG-20010904/DTD/svg10.dtd">
<svg version="1.0" xmlns="http://www.w3.org/2000/svg"
 width="512.000000pt" height="512.000000pt" viewBox="0 0 512.000000 512.000000"
 preserveAspectRatio="xMidYMid meet">

<g transform="translate(0.000000,512.000000) scale(0.100000,-0.100000)"
fill="#000000" stroke="none">
<path d="M2240 4693 c-367 -60 -696 -199 -985 -416 -150 -113 -355 -327 -464
-484 l-22 -33 428 0 428 0 55 112 c82 170 223 383 353 538 21 25 93 100 160
168 125 126 125 128 47 115z"/>
<path d="M2907 4599 c109 -111 224 -247 340 -399 68 -90 192 -304 231 -397
l17 -43 428 0 428 0 -22 33 c-109 157 -314 371 -466 485 -285 215 -669 375
-1003 417 l-55 8 102 -104z"/>
<path d="M2340 4500 c-199 -198 -335 -375 -467 -608 l-73 -127 337 -3 c185 -1
338 -1 340 1 2 2 2 199 1 438 l-3 433 -135 -134z"/>
<path d="M2640 4196 l0 -436 342 0 c324 0 340 1 326 18 -8 9 -37 57 -63 107
-59 110 -205 329 -285 428 -33 41 -118 129 -190 197 l-130 122 0 -436z"/>
<path d="M611 3490 c-81 -170 -148 -383 -180 -570 -11 -66 -31 -231 -31 -262
0 -17 29 -18 479 -18 l478 0 7 103 c17 251 75 541 150 752 20 55 36 101 36
103 0 1 -200 2 -443 2 l-444 0 -52 -110z"/>
<path d="M1711 3558 c-58 -138 -127 -382 -155 -548 -17 -103 -36 -282 -36
-336 l0 -34 480 0 480 0 0 480 0 480 -375 0 -376 0 -18 -42z"/>
<path d="M2640 3120 l0 -480 481 0 482 0 -7 98 c-20 279 -93 601 -186 818
l-19 44 -376 0 -375 0 0 -480z"/>
<path d="M3570 3598 c0 -2 16 -48 36 -103 75 -211 133 -501 150 -752 l7 -103
478 0 479 0 0 33 c0 71 -31 278 -59 392 -38 155 -80 272 -149 418 l-55 117
-443 0 c-244 0 -444 -1 -444 -2z"/>
<path d="M410 2430 c0 -83 30 -268 65 -405 37 -144 79 -261 148 -407 l46 -98
440 0 c243 0 441 1 441 3 0 1 -16 47 -36 102 -75 210 -130 492 -141 726 l-6
129 -479 0 -478 0 0 -50z"/>
<path d="M1524 2383 c19 -267 74 -520 163 -758 l38 -100 378 -3 377 -2 0 480
0 480 -481 0 -482 0 7 -97z"/>
<path d="M3625 2295 c-24 -23 -25 -29 -25 -160 l0 -135 -375 0 -376 0 -24 -25
c-16 -15 -25 -36 -25 -55 0 -51 38 -80 105 -80 l55 0 0 -590 c0 -395 4 -606
11 -642 19 -89 58 -158 128 -229 71 -70 140 -109 229 -128 70 -14 959 -15
1022 0 117 27 256 133 308 234 52 103 52 104 52 752 l0 603 54 0 c72 0 106 26
106 81 0 26 -7 46 -20 59 -19 19 -33 20 -395 20 l-375 0 0 135 c0 131 -1 137
-25 160 -24 25 -26 25 -215 25 -189 0 -191 0 -215 -25z m295 -215 l0 -80 -80
0 -80 0 0 80 0 80 80 0 80 0 0 -80z m-29 -589 l29 -29 0 -342 0 -342 -29 -29
c-16 -16 -39 -29 -51 -29 -12 0 -35 13 -51 29 l-29 29 0 342 0 342 29 29 c16
16 39 29 51 29 12 0 35 -13 51 -29z m-480 -160 l29 -29 0 -262 0 -262 -29 -29
c-37 -37 -65 -37 -102 0 l-29 29 0 262 0 262 29 29 c16 16 39 29 51 29 12 0
35 -13 51 -29z m960 0 l29 -29 0 -262 0 -262 -29 -29 c-37 -37 -65 -37 -102 0
l-29 29 0 262 0 262 29 29 c16 16 39 29 51 29 12 0 35 -13 51 -29z"/>
<path d="M791 1328 c104 -149 289 -347 424 -453 308 -241 703 -409 1056 -450
l54 -6 -25 21 c-14 11 -46 39 -72 61 -63 53 -220 235 -327 379 -90 121 -184
278 -242 404 l-34 75 -428 1 -428 0 22 -32z"/>
<path d="M1819 1328 c10 -18 42 -76 72 -128 52 -94 133 -218 218 -335 43 -60
349 -375 363 -375 5 0 8 196 8 435 l0 435 -340 0 -339 0 18 -32z"/>
</g>
</svg>
